<?xml version="1.0" standalone="no"?><!DOCTYPE svg PUBLIC "-//W3C//DTD SVG 1.1//EN" "http://www.w3.org/Graphics/SVG/1.1/DTD/svg11.dtd"><svg t="1688179689523" class="icon" viewBox="0 0 1024 1024" version="1.1" xmlns="http://www.w3.org/2000/svg" p-id="1515" xmlns:xlink="http://www.w3.org/1999/xlink" width="200" height="200"><path d="M198.4 198.4h57.6c8.533333 0 14.933333 2.133333 19.2 8.533333 6.4 6.4 8.533333 12.8 8.533333 19.2v57.6c0 8.533333-2.133333 14.933333-8.533333 19.2-6.4 6.4-12.8 8.533333-19.2 8.533334h-57.6c-8.533333 0-14.933333-2.133333-19.2-8.533334-6.4-6.4-8.533333-12.8-8.533333-19.2v-57.6c0-8.533333 2.133333-14.933333 8.533333-19.2 4.266667-4.266667 12.8-8.533333 19.2-8.533333z m170.666667 0h454.4c8.533333 0 14.933333 2.133333 19.2 8.533333 6.4 6.4 8.533333 12.8 8.533333 19.2v57.6c0 8.533333-2.133333 14.933333-8.533333 19.2-6.4 6.4-12.8 8.533333-19.2 8.533334h-454.4c-8.533333 0-14.933333-2.133333-19.2-8.533334-6.4-6.4-8.533333-12.8-8.533334-19.2v-57.6c0-8.533333 2.133333-14.933333 8.533334-19.2 4.266667-4.266667 12.8-8.533333 19.2-8.533333z m-170.666667 170.666667h57.6c8.533333 0 14.933333 2.133333 19.2 8.533333 6.4 6.4 8.533333 12.8 8.533333 19.2v57.6c0 8.533333-2.133333 14.933333-8.533333 19.2-6.4 6.4-12.8 8.533333-19.2 8.533333h-57.6c-8.533333 0-14.933333-2.133333-19.2-8.533333-6.4-6.4-8.533333-12.8-8.533333-19.2v-57.6c0-8.533333 2.133333-14.933333 8.533333-19.2 4.266667-4.266667 12.8-8.533333 19.2-8.533333z m170.666667 0h454.4c8.533333 0 14.933333 2.133333 19.2 8.533333 6.4 6.4 8.533333 12.8 8.533333 19.2v57.6c0 8.533333-2.133333 14.933333-8.533333 19.2-6.4 6.4-12.8 8.533333-19.2 8.533333h-454.4c-8.533333 0-14.933333-2.133333-19.2-8.533333-6.4-6.4-8.533333-12.8-8.533334-19.2v-57.6c0-8.533333 2.133333-14.933333 8.533334-19.2 4.266667-4.266667 12.8-8.533333 19.2-8.533333z m-170.666667 170.666666h57.6c8.533333 0 14.933333 2.133333 19.2 8.533334 6.4 6.4 8.533333 12.8 8.533333 19.2v57.6c0 8.533333-2.133333 14.933333-8.533333 19.2-6.4 6.4-12.8 8.533333-19.2 8.533333h-57.6c-8.533333 0-14.933333-2.133333-19.2-8.533333-6.4-6.4-8.533333-12.8-8.533333-19.2v-57.6c0-8.533333 2.133333-14.933333 8.533333-19.2 4.266667-4.266667 12.8-8.533333 19.2-8.533334z m170.666667 0h454.4c8.533333 0 14.933333 2.133333 19.2 8.533334 6.4 6.4 8.533333 12.8 8.533333 19.2v57.6c0 8.533333-2.133333 14.933333-8.533333 19.2-6.4 6.4-12.8 8.533333-19.2 8.533333h-454.4c-8.533333 0-14.933333-2.133333-19.2-8.533333-6.4-6.4-8.533333-12.8-8.533334-19.2v-57.6c0-8.533333 2.133333-14.933333 8.533334-19.2 4.266667-4.266667 12.8-8.533333 19.2-8.533334z m-170.666667 170.666667h57.6c8.533333 0 14.933333 2.133333 19.2 8.533333 6.4 6.4 8.533333 12.8 8.533333 19.2v57.6c0 8.533333-2.133333 14.933333-8.533333 19.2s-12.8 8.533333-19.2 8.533334h-57.6c-8.533333 0-14.933333-2.133333-19.2-8.533334-6.4-6.4-8.533333-12.8-8.533333-19.2v-57.6c0-8.533333 2.133333-14.933333 8.533333-19.2 4.266667-4.266667 12.8-8.533333 19.2-8.533333z m170.666667 0h454.4c8.533333 0 14.933333 2.133333 19.2 8.533333 6.4 6.4 8.533333 12.8 8.533333 19.2v57.6c0 8.533333-2.133333 14.933333-8.533333 19.2-6.4 6.4-12.8 8.533333-19.2 8.533334h-454.4c-8.533333 0-14.933333-2.133333-19.2-8.533334-6.4-6.4-8.533333-12.8-8.533334-19.2v-57.6c0-8.533333 2.133333-14.933333 8.533334-19.2 4.266667-4.266667 12.8-8.533333 19.2-8.533333z" p-id="1516" fill="#ffffff"></path></svg>